<?xml version="1.0" encoding="UTF-8" standalone="no"?>
<svg
   xmlns:dc="http://purl.org/dc/elements/1.1/"
   xmlns:cc="http://creativecommons.org/ns#"
   xmlns:rdf="http://www.w3.org/1999/02/22-rdf-syntax-ns#"
   xmlns:svg="http://www.w3.org/2000/svg"
   xmlns="http://www.w3.org/2000/svg"
   xmlns:sodipodi="http://sodipodi.sourceforge.net/DTD/sodipodi-0.dtd"
   xmlns:inkscape="http://www.inkscape.org/namespaces/inkscape"
   width="5"
   height="51.5"
   viewBox="0 0 5 51.5"
   version="1.1"
   id="svg8"
   inkscape:version="1.0.1 (3bc2e813f5, 2020-09-07)"
   sodipodi:docname="logo_vertical.svg">
  <defs
     id="defs2" />
  <sodipodi:namedview
     id="base"
     pagecolor="#ffffff"
     bordercolor="#666666"
     borderopacity="1.0"
     inkscape:pageopacity="0.0"
     inkscape:pageshadow="2"
     inkscape:zoom="5.6568542"
     inkscape:cx="-24.847856"
     inkscape:cy="39.133098"
     inkscape:document-units="px"
     inkscape:current-layer="layer1"
     inkscape:document-rotation="0"
     showgrid="true"
     units="px"
     inkscape:window-width="1346"
     inkscape:window-height="921"
     inkscape:window-x="256"
     inkscape:window-y="0"
     inkscape:window-maximized="0">
    <inkscape:grid
       type="xygrid"
       id="grid833"
       spacingx="0.25"
       spacingy="0.25"
       empspacing="4" />
  </sodipodi:namedview>
  <metadata
     id="metadata5">
    <rdf:RDF>
      <cc:Work
         rdf:about="">
        <dc:format>image/svg+xml</dc:format>
        <dc:type
           rdf:resource="http://purl.org/dc/dcmitype/StillImage" />
        <dc:title></dc:title>
      </cc:Work>
    </rdf:RDF>
  </metadata>
  <g
     inkscape:label="Layer 1"
     inkscape:groupmode="layer"
     id="layer1">
    <path
       style="fill:#000000;fill-opacity:1;stroke:none;stroke-width:1px;stroke-linecap:butt;stroke-linejoin:miter;stroke-opacity:1"
       d="M 0.5,0 H 4 V 2.5 H 2.75 V 1 H 2.25 V 3 H 4.5 v 1 h -4 z"
       id="path837"
       sodipodi:nodetypes="ccccccccccc" />
    <path
       style="fill:#000000;fill-opacity:1;stroke:none;stroke-width:1px;stroke-linecap:butt;stroke-linejoin:miter;stroke-opacity:1"
       d="m 1,4.5 v 3 h 3 v -3 H 2.75 v 2 h -0.5 v -2 z"
       id="path843"
       sodipodi:nodetypes="ccccccccc" />
    <path
       id="path845"
       style="fill:#000000;fill-opacity:1;stroke:none;stroke-width:1px;stroke-linecap:butt;stroke-linejoin:miter;stroke-opacity:1"
       d="m 1,8 v 3 H 2 V 10.5 H 3 V 11 H 4 V 8 Z M 2,9 H 3 V 9.5 H 2 Z" />
    <path
       style="fill:#000000;fill-opacity:1;stroke:none;stroke-width:1px;stroke-linecap:butt;stroke-linejoin:miter;stroke-opacity:1"
       d="m 1,15 h 3 v 1 H 3.5 v 2 h -2 V 16 H 1 Z"
       id="path852"
       sodipodi:nodetypes="ccccccccc" />
    <path
       style="fill:#000000;fill-opacity:1;stroke:none;stroke-width:1px;stroke-linecap:butt;stroke-linejoin:miter;stroke-opacity:1"
       d="m 1,18.5 h 1.25 v 2 h 0.5 v -2 H 4 v 3 H 1 Z"
       id="path854"
       sodipodi:nodetypes="ccccccccc" />
    <path
       style="fill:#000000;fill-opacity:1;stroke:none;stroke-width:1px;stroke-linecap:butt;stroke-linejoin:miter;stroke-opacity:1"
       d="m 1,22 h 1.25 v 0.5 h 0.5 V 22 H 4 v 3 H 2.75 V 23.5 H 2.25 V 25 H 1 Z"
       id="path856"
       sodipodi:nodetypes="ccccccccccccc" />
    <path
       style="fill:#000000;fill-opacity:1;stroke:none;stroke-width:1px;stroke-linecap:butt;stroke-linejoin:miter;stroke-opacity:1"
       d="m 0.75,27 h 1 v 0.5 h 1.5 V 27 h 1 v 3.5 h -1 V 29 H 3 v 0.5 H 2 V 29 H 1.75 v 1.5 h -1 z"
       id="path858"
       sodipodi:nodetypes="ccccccccccccccccc" />
    <path
       style="fill:#000000;fill-opacity:1;stroke:none;stroke-width:1px;stroke-linecap:butt;stroke-linejoin:miter;stroke-opacity:1"
       d="m 1,31 h 1.5 v 1.25 H 2.25 v 0.5 h 0.5 v -0.5 H 2.5 V 31 H 4 v 3 H 1 Z"
       id="path862"
       sodipodi:nodetypes="ccccccccccccc" />
    <path
       style="fill:#000000;fill-opacity:1;stroke:none;stroke-width:1px;stroke-linecap:butt;stroke-linejoin:miter;stroke-opacity:1"
       d="M 4,38 H 1 v 1.75 H 2.5 V 40 H 1 v 1 H 4 V 39.25 H 2.5 V 39 H 4 Z"
       id="path879"
       sodipodi:nodetypes="ccccccccccccc" />
    <path
       style="fill:#000000;fill-opacity:1;stroke:none;stroke-width:1px;stroke-linecap:butt;stroke-linejoin:miter;stroke-opacity:1"
       d="m 1,41.5 h 3 v 1 H 3.5 v 2 h -2 v -2 H 1 Z"
       id="path852-1"
       sodipodi:nodetypes="ccccccccc" />
    <path
       style="fill:#000000;fill-opacity:1;stroke:none;stroke-width:1px;stroke-linecap:butt;stroke-linejoin:miter;stroke-opacity:1"
       d="m 4,45 v 1 H 2.5 v 0.25 H 3 v 0.5 H 2.5 V 47 H 4 v 1 H 1 v -3 z"
       id="path896"
       sodipodi:nodetypes="ccccccccccccc" />
    <path
       style="fill:#000000;fill-opacity:1;stroke:none;stroke-width:1px;stroke-linecap:butt;stroke-linejoin:miter;stroke-opacity:1"
       d="m 1,48.5 h 3 v 1.75 H 3.75 v 0.5 H 4 V 51.5 H 3 V 51 H 2 v 0.5 H 1 v -2 H 2 V 50 H 3 V 49.5 H 2 v 0 H 1 Z"
       id="path913"
       sodipodi:nodetypes="ccccccccccccccccccccc" />
    <path
       style="fill:#000000;fill-opacity:1;stroke:none;stroke-width:1px;stroke-linecap:butt;stroke-linejoin:miter;stroke-opacity:1"
       d="m 1,11.5 h 1.75 v 2 H 3 v -2 h 1 v 3 H 2.25 v -2 H 2 v 2 H 1 Z"
       id="path850-8-7"
       sodipodi:nodetypes="ccccccccccccc" />
    <path
       style="fill:#000000;fill-opacity:1;stroke:none;stroke-width:1px;stroke-linecap:butt;stroke-linejoin:miter;stroke-opacity:1"
       d="M 1,34.5 H 2.75 V 36 H 3 v -1.5 h 1 v 3 H 2.25 V 36 H 2 v 1.5 H 1 Z"
       id="path850-8-7-0"
       sodipodi:nodetypes="ccccccccccccc" />
  </g>
</svg>
